# xmcd
#
# Track frame offsets: 
#        150
#        36688
#        41327
#        51672
#        66123
#        80018
#
# Disc length: 1922 seconds
#
# Revision: 0
# Processed by: cddbd v1.5.2PL0 Copyright (c) Steve Scherf et al.
# Submitted via: ExactAudioCopy v0.99pb5
#
DISCID=56078006
DTITLE=Mark McGuire - Losing Sleep
DYEAR=2009
DGENRE=Ambient/Drone/Experimental
TTITLE0=Through The Open Window
TTITLE1=Collateral
TTITLE2=Explosion Alarm
TTITLE3=Searching
TTITLE4=No Eye Noon Doe
TTITLE5=The Mafia Lights 2 (Live @ Pats In The Flats 06.24.09)
EXTD=
EXTT0=
EXTT1=
EXTT2=
EXTT3=
EXTT4=
EXTT5=
PLAYORDER=
